# xmcd
#
# Track frame offsets:
#	150
#	15028
#	37828
#	55780
#	64453
#	80187
#	96167
#	115646
#	131211
#	148810
#
# Disc length: 2126 seconds
#
# Revision: 0
# Processed by: cddbd v1.5.1PL0 Copyright (c) Steve Scherf et al.
# Submitted via: dBpowerAMP V4.0
#
DISCID=84084c0a
DTITLE=B.B. King - Sus mejores blues
DYEAR=1995
DGENRE=Blues
TTITLE0=B.B. Boggie
TTITLE1=Everyday y have the blues
TTITLE2=Paying the cost to be the boss
TTITLE3=A new way a driving
TTITLE4=The letter
TTITLE5=Lonely nights
TTITLE6=Sweet sixteen
TTITLE7=Walking and crying
TTITLE8=That evil child
TTITLE9=Recession blues
EXTD=
EXTT0=
EXTT1=
EXTT2=
EXTT3=
EXTT4=
EXTT5=
EXTT6=
EXTT7=
EXTT8=
EXTT9=
PLAYORDER=
